<svg width="20" height="20" viewBox="0 0 20 20" fill="none" xmlns="http://www.w3.org/2000/svg">
<path fill-rule="evenodd" clip-rule="evenodd" d="M10 1.66669C14.6025 1.66669 18.3334 5.39752 18.3334 10C18.3334 13.5834 16.0717 16.6384 12.8984 17.815C12.8447 17.8445 12.788 17.868 12.7292 17.885L12.65 17.9034C11.7957 18.189 10.9008 18.3342 10 18.3334C5.39752 18.3334 1.66669 14.6025 1.66669 10C1.66669 5.39752 5.39752 1.66669 10 1.66669ZM12.425 3.78835L12.2784 4.52252C12.1838 4.99504 11.9547 5.43016 11.6187 5.77553C11.2826 6.12089 10.8539 6.36177 10.3842 6.46919L10.05 6.54585C9.84274 6.59311 9.66137 6.7178 9.54301 6.89441C9.42465 7.07101 9.37827 7.28617 9.41335 7.49585L9.55919 8.36919C9.60565 8.64912 9.57987 8.93628 9.48429 9.20347C9.3887 9.47065 9.22649 9.709 9.01301 9.89594C8.79952 10.0829 8.54185 10.2122 8.26439 10.2717C7.98693 10.3312 7.69887 10.3189 7.42752 10.2359L6.35252 9.90752C5.84048 9.751 5.39222 9.43421 5.07373 9.00381C4.75524 8.5734 4.58334 8.05212 4.58335 7.51669V6.11252C3.79432 7.21106 3.35808 8.52362 3.33257 9.87592C3.30705 11.2282 3.69347 12.5563 4.44051 13.6838C5.18755 14.8113 6.25987 15.685 7.51511 16.1887C8.77035 16.6925 10.1491 16.8025 11.4684 16.5042L10.9842 14.8109C10.9451 14.6747 10.872 14.5508 10.7717 14.4509L9.74002 13.4184C9.61568 13.2941 9.51895 13.145 9.45614 12.9808C9.39334 12.8166 9.36588 12.641 9.37555 12.4654C9.38522 12.2899 9.43182 12.1184 9.51228 11.9621C9.59274 11.8058 9.70527 11.6682 9.84252 11.5584L11.1467 10.5159C11.3953 10.317 11.6957 10.1934 12.0123 10.1599C12.329 10.1264 12.6486 10.1843 12.9334 10.3267L14.1584 10.9392C14.5264 11.1233 14.8434 11.3953 15.081 11.7313C15.3187 12.0672 15.4698 12.4567 15.5209 12.865L15.6125 13.5992C16.145 12.7684 16.4866 11.8298 16.6125 10.8511C16.7384 9.87238 16.6455 8.87791 16.3406 7.93941C16.0357 7.00091 15.5263 6.14177 14.8492 5.42394C14.1721 4.70611 13.3441 4.14749 12.425 3.78835ZM12.1875 11.8175L11.2475 12.5692L11.9509 13.2717C12.2076 13.5288 12.4053 13.8388 12.53 14.18L12.5867 14.3534L13.0392 15.935C13.3314 15.785 13.6103 15.615 13.8759 15.425L14.1367 15.2284L13.8675 13.0717C13.8526 12.9529 13.8123 12.8387 13.7493 12.7369C13.6864 12.6351 13.6022 12.548 13.5025 12.4817L13.4125 12.43L12.1875 11.8175ZM10 3.33335C8.66018 3.3311 7.35106 3.73465 6.24502 4.49085C6.24835 4.52085 6.25002 4.55169 6.25002 4.58335V7.51669C6.24986 7.69519 6.30702 7.86902 6.41309 8.01259C6.51916 8.15617 6.66852 8.26189 6.83919 8.31419L7.91502 8.64252L7.76919 7.76919C7.66437 7.14052 7.80363 6.49555 8.15849 5.96613C8.51335 5.4367 9.05701 5.0628 9.67835 4.92085L10.0125 4.84502C10.1693 4.80918 10.3124 4.72874 10.4245 4.61341C10.5365 4.49807 10.6128 4.35276 10.6442 4.19502L10.8075 3.38169C10.5396 3.34925 10.2699 3.3331 10 3.33335Z" fill="black"/>
</svg>
